<mxfile host="app.diagrams.net" modified="2023-12-29T09:42:31.865Z" agent="Mozilla/5.0 (Windows NT 10.0; Win64; x64) AppleWebKit/537.36 (KHTML, like Gecko) Chrome/120.0.0.0 Safari/537.36 Edg/120.0.0.0" etag="YkQw-05U7VUsCutiT_VE" version="22.1.15" type="device">
  <diagram name="第 1 页" id="ZoB8Ra-dkpuowA0vM-Vj">
    <mxGraphModel dx="1386" dy="793" grid="1" gridSize="10" guides="1" tooltips="1" connect="1" arrows="1" fold="1" page="1" pageScale="1" pageWidth="827" pageHeight="1169" math="0" shadow="0">
      <root>
        <mxCell id="0" />
        <mxCell id="1" parent="0" />
        <mxCell id="QWcHBg0qUhiKrd303d1t-3" style="edgeStyle=orthogonalEdgeStyle;rounded=0;orthogonalLoop=1;jettySize=auto;html=1;" edge="1" parent="1" source="QWcHBg0qUhiKrd303d1t-1" target="QWcHBg0qUhiKrd303d1t-2">
          <mxGeometry relative="1" as="geometry" />
        </mxCell>
        <mxCell id="QWcHBg0qUhiKrd303d1t-1" value="Actor" style="shape=umlActor;verticalLabelPosition=bottom;verticalAlign=top;html=1;outlineConnect=0;" vertex="1" parent="1">
          <mxGeometry x="230" y="10" width="30" height="60" as="geometry" />
        </mxCell>
        <mxCell id="QWcHBg0qUhiKrd303d1t-2" value="cross_server_chat" style="ellipse;whiteSpace=wrap;html=1;" vertex="1" parent="1">
          <mxGeometry x="400" width="160" height="80" as="geometry" />
        </mxCell>
        <mxCell id="QWcHBg0qUhiKrd303d1t-4" value="cross server chat" style="text;html=1;strokeColor=none;fillColor=none;align=center;verticalAlign=middle;whiteSpace=wrap;rounded=0;" vertex="1" parent="1">
          <mxGeometry x="220" y="100" width="270" height="30" as="geometry" />
        </mxCell>
        <mxCell id="QWcHBg0qUhiKrd303d1t-5" value="gateway" style="shape=umlLifeline;perimeter=lifelinePerimeter;whiteSpace=wrap;html=1;container=1;dropTarget=0;collapsible=0;recursiveResize=0;outlineConnect=0;portConstraint=eastwest;newEdgeStyle={&quot;curved&quot;:0,&quot;rounded&quot;:0};" vertex="1" parent="1">
          <mxGeometry x="185" y="270" width="100" height="320" as="geometry" />
        </mxCell>
        <mxCell id="QWcHBg0qUhiKrd303d1t-7" value="" style="html=1;points=[[0,0,0,0,5],[0,1,0,0,-5],[1,0,0,0,5],[1,1,0,0,-5]];perimeter=orthogonalPerimeter;outlineConnect=0;targetShapes=umlLifeline;portConstraint=eastwest;newEdgeStyle={&quot;curved&quot;:0,&quot;rounded&quot;:0};" vertex="1" parent="QWcHBg0qUhiKrd303d1t-5">
          <mxGeometry x="45" y="110" width="10" height="80" as="geometry" />
        </mxCell>
        <mxCell id="QWcHBg0qUhiKrd303d1t-26" value="" style="html=1;points=[[0,0,0,0,5],[0,1,0,0,-5],[1,0,0,0,5],[1,1,0,0,-5]];perimeter=orthogonalPerimeter;outlineConnect=0;targetShapes=umlLifeline;portConstraint=eastwest;newEdgeStyle={&quot;curved&quot;:0,&quot;rounded&quot;:0};" vertex="1" parent="QWcHBg0qUhiKrd303d1t-5">
          <mxGeometry x="45" y="215" width="10" height="80" as="geometry" />
        </mxCell>
        <mxCell id="QWcHBg0qUhiKrd303d1t-8" style="edgeStyle=orthogonalEdgeStyle;rounded=0;orthogonalLoop=1;jettySize=auto;html=1;" edge="1" parent="1" source="QWcHBg0qUhiKrd303d1t-6" target="QWcHBg0qUhiKrd303d1t-7">
          <mxGeometry relative="1" as="geometry" />
        </mxCell>
        <mxCell id="QWcHBg0qUhiKrd303d1t-6" value="player" style="shape=umlActor;verticalLabelPosition=bottom;verticalAlign=top;html=1;" vertex="1" parent="1">
          <mxGeometry x="50" y="390" width="30" height="60" as="geometry" />
        </mxCell>
        <mxCell id="QWcHBg0qUhiKrd303d1t-9" value="send chat msg" style="text;html=1;align=center;verticalAlign=middle;resizable=0;points=[];autosize=1;strokeColor=none;fillColor=none;" vertex="1" parent="1">
          <mxGeometry x="90" y="388" width="100" height="30" as="geometry" />
        </mxCell>
        <mxCell id="QWcHBg0qUhiKrd303d1t-10" value="game server" style="shape=umlLifeline;perimeter=lifelinePerimeter;whiteSpace=wrap;html=1;container=1;dropTarget=0;collapsible=0;recursiveResize=0;outlineConnect=0;portConstraint=eastwest;newEdgeStyle={&quot;curved&quot;:0,&quot;rounded&quot;:0};" vertex="1" parent="1">
          <mxGeometry x="370" y="270" width="100" height="320" as="geometry" />
        </mxCell>
        <mxCell id="QWcHBg0qUhiKrd303d1t-11" value="" style="html=1;points=[[0,0,0,0,5],[0,1,0,0,-5],[1,0,0,0,5],[1,1,0,0,-5]];perimeter=orthogonalPerimeter;outlineConnect=0;targetShapes=umlLifeline;portConstraint=eastwest;newEdgeStyle={&quot;curved&quot;:0,&quot;rounded&quot;:0};" vertex="1" parent="QWcHBg0qUhiKrd303d1t-10">
          <mxGeometry x="45" y="100" width="10" height="90" as="geometry" />
        </mxCell>
        <mxCell id="QWcHBg0qUhiKrd303d1t-23" value="" style="html=1;points=[[0,0,0,0,5],[0,1,0,0,-5],[1,0,0,0,5],[1,1,0,0,-5]];perimeter=orthogonalPerimeter;outlineConnect=0;targetShapes=umlLifeline;portConstraint=eastwest;newEdgeStyle={&quot;curved&quot;:0,&quot;rounded&quot;:0};" vertex="1" parent="QWcHBg0qUhiKrd303d1t-10">
          <mxGeometry x="45" y="215" width="10" height="80" as="geometry" />
        </mxCell>
        <mxCell id="QWcHBg0qUhiKrd303d1t-13" style="edgeStyle=orthogonalEdgeStyle;rounded=0;orthogonalLoop=1;jettySize=auto;html=1;curved=0;" edge="1" parent="1" source="QWcHBg0qUhiKrd303d1t-7" target="QWcHBg0qUhiKrd303d1t-11">
          <mxGeometry relative="1" as="geometry">
            <Array as="points">
              <mxPoint x="350" y="420" />
              <mxPoint x="350" y="420" />
            </Array>
          </mxGeometry>
        </mxCell>
        <mxCell id="QWcHBg0qUhiKrd303d1t-14" value="forward to game server" style="text;html=1;align=center;verticalAlign=middle;resizable=0;points=[];autosize=1;strokeColor=none;fillColor=none;" vertex="1" parent="1">
          <mxGeometry x="250" y="388" width="150" height="30" as="geometry" />
        </mxCell>
        <mxCell id="QWcHBg0qUhiKrd303d1t-15" value="cross server" style="shape=umlLifeline;perimeter=lifelinePerimeter;whiteSpace=wrap;html=1;container=1;dropTarget=0;collapsible=0;recursiveResize=0;outlineConnect=0;portConstraint=eastwest;newEdgeStyle={&quot;curved&quot;:0,&quot;rounded&quot;:0};" vertex="1" parent="1">
          <mxGeometry x="560" y="265" width="100" height="345" as="geometry" />
        </mxCell>
        <mxCell id="QWcHBg0qUhiKrd303d1t-16" value="" style="html=1;points=[[0,0,0,0,5],[0,1,0,0,-5],[1,0,0,0,5],[1,1,0,0,-5]];perimeter=orthogonalPerimeter;outlineConnect=0;targetShapes=umlLifeline;portConstraint=eastwest;newEdgeStyle={&quot;curved&quot;:0,&quot;rounded&quot;:0};" vertex="1" parent="QWcHBg0qUhiKrd303d1t-15">
          <mxGeometry x="45" y="110" width="10" height="80" as="geometry" />
        </mxCell>
        <mxCell id="QWcHBg0qUhiKrd303d1t-21" value="" style="html=1;points=[[0,0,0,0,5],[0,1,0,0,-5],[1,0,0,0,5],[1,1,0,0,-5]];perimeter=orthogonalPerimeter;outlineConnect=0;targetShapes=umlLifeline;portConstraint=eastwest;newEdgeStyle={&quot;curved&quot;:0,&quot;rounded&quot;:0};" vertex="1" parent="QWcHBg0qUhiKrd303d1t-15">
          <mxGeometry x="45" y="220" width="10" height="80" as="geometry" />
        </mxCell>
        <mxCell id="QWcHBg0qUhiKrd303d1t-20" value="forward to cross server" style="text;html=1;align=center;verticalAlign=middle;resizable=0;points=[];autosize=1;strokeColor=none;fillColor=none;" vertex="1" parent="1">
          <mxGeometry x="450" y="380" width="150" height="30" as="geometry" />
        </mxCell>
        <mxCell id="QWcHBg0qUhiKrd303d1t-22" style="edgeStyle=orthogonalEdgeStyle;rounded=0;orthogonalLoop=1;jettySize=auto;html=1;curved=0;entryX=1.007;entryY=1.167;entryDx=0;entryDy=0;entryPerimeter=0;" edge="1" parent="1" source="QWcHBg0qUhiKrd303d1t-11" target="QWcHBg0qUhiKrd303d1t-20">
          <mxGeometry relative="1" as="geometry" />
        </mxCell>
        <mxCell id="QWcHBg0qUhiKrd303d1t-24" style="edgeStyle=orthogonalEdgeStyle;rounded=0;orthogonalLoop=1;jettySize=auto;html=1;curved=0;" edge="1" parent="1" source="QWcHBg0qUhiKrd303d1t-21" target="QWcHBg0qUhiKrd303d1t-23">
          <mxGeometry relative="1" as="geometry" />
        </mxCell>
        <mxCell id="QWcHBg0qUhiKrd303d1t-25" value="broadcast to game server" style="text;html=1;align=center;verticalAlign=middle;resizable=0;points=[];autosize=1;strokeColor=none;fillColor=none;" vertex="1" parent="1">
          <mxGeometry x="430" y="498" width="160" height="30" as="geometry" />
        </mxCell>
        <mxCell id="QWcHBg0qUhiKrd303d1t-27" style="edgeStyle=orthogonalEdgeStyle;rounded=0;orthogonalLoop=1;jettySize=auto;html=1;curved=0;" edge="1" parent="1" source="QWcHBg0qUhiKrd303d1t-23" target="QWcHBg0qUhiKrd303d1t-26">
          <mxGeometry relative="1" as="geometry" />
        </mxCell>
        <mxCell id="QWcHBg0qUhiKrd303d1t-28" value="forward to gateway" style="text;html=1;align=center;verticalAlign=middle;resizable=0;points=[];autosize=1;strokeColor=none;fillColor=none;" vertex="1" parent="1">
          <mxGeometry x="240" y="498" width="120" height="30" as="geometry" />
        </mxCell>
        <mxCell id="QWcHBg0qUhiKrd303d1t-30" style="edgeStyle=none;rounded=0;orthogonalLoop=1;jettySize=auto;html=1;curved=0;entryX=1;entryY=1;entryDx=0;entryDy=0;entryPerimeter=0;" edge="1" parent="1" source="QWcHBg0qUhiKrd303d1t-26" target="QWcHBg0qUhiKrd303d1t-6">
          <mxGeometry relative="1" as="geometry" />
        </mxCell>
        <mxCell id="QWcHBg0qUhiKrd303d1t-34" value="&lt;p style=&quot;margin:0px;margin-top:4px;text-align:center;&quot;&gt;&lt;b&gt;cross server&lt;/b&gt;&lt;/p&gt;&lt;hr size=&quot;1&quot;&gt;&lt;p style=&quot;margin:0px;margin-left:4px;&quot;&gt;+ content&lt;/p&gt;&lt;p style=&quot;margin:0px;margin-left:4px;&quot;&gt;+ playerId&lt;/p&gt;&lt;p style=&quot;margin:0px;margin-left:4px;&quot;&gt;+ seesion manager&lt;/p&gt;&lt;p style=&quot;margin:0px;margin-left:4px;&quot;&gt;+&lt;/p&gt;&lt;p style=&quot;margin:0px;margin-left:4px;&quot;&gt;&lt;br&gt;&lt;/p&gt;&lt;p style=&quot;margin:0px;margin-left:4px;&quot;&gt;&lt;br&gt;&lt;/p&gt;&lt;hr size=&quot;1&quot;&gt;&lt;p style=&quot;margin:0px;margin-left:4px;&quot;&gt;sendMsg（）&lt;/p&gt;" style="verticalAlign=top;align=left;overflow=fill;fontSize=12;fontFamily=Helvetica;html=1;whiteSpace=wrap;" vertex="1" parent="1">
          <mxGeometry x="90" y="690" width="200" height="150" as="geometry" />
        </mxCell>
      </root>
    </mxGraphModel>
  </diagram>
</mxfile>
